<svg xmlns="http://www.w3.org/2000/svg" width="20.813" height="20.813" viewBox="0 0 20.813 20.813">
  <path id="Icon_material-account-circle" data-name="Icon material-account-circle" d="M13.406,3A10.406,10.406,0,1,0,23.813,13.406,10.41,10.41,0,0,0,13.406,3Zm0,3.122a3.122,3.122,0,1,1-3.122,3.122A3.118,3.118,0,0,1,13.406,6.122Zm0,14.777a7.493,7.493,0,0,1-6.244-3.351c.031-2.071,4.162-3.205,6.244-3.205s6.213,1.134,6.244,3.205A7.493,7.493,0,0,1,13.406,20.9Z" transform="translate(-3 -3)" fill="currentColor"/>
</svg>
