<svg xmlns="http://www.w3.org/2000/svg" width="13.338" height="12.32" viewBox="0 0 13.338 12.32">
  <path id="Path_1" data-name="Path 1" d="M11.1,28.895a.77.77,0,1,1-.77-.77A.77.77,0,0,1,11.1,28.895Z" transform="translate(-6.743 -17.344)" fill="#fff"/>
  <path id="Path_2" data-name="Path 2" d="M26.887,28.895a.77.77,0,1,1-.77-.77A.77.77,0,0,1,26.887,28.895Z" transform="translate(-15.327 -17.344)" fill="#fff"/>
  <path id="Path_3" data-name="Path 3" d="M16.716,6.684a.189.189,0,0,0-.167-.135L6.1,5.539a.322.322,0,0,1-.241-.151,3.266,3.266,0,0,0-.391-.6c-.247-.3-.712-.292-1.565-.3a.467.467,0,0,0-.523.452.459.459,0,0,0,.5.452,4.262,4.262,0,0,1,.834.061c.151.045.273.292.318.507a.012.012,0,0,0,0,.01c.006.038.064.327.064.33l1.283,6.787a2.494,2.494,0,0,0,.465,1.145,1.28,1.28,0,0,0,1.055.52h7.589a.456.456,0,0,0,.462-.43.447.447,0,0,0-.449-.468H7.9a.373.373,0,0,1-.266-.09,1.439,1.439,0,0,1-.369-.834l-.138-.76a.018.018,0,0,1,.013-.019l8.907-1.508a.187.187,0,0,0,.157-.167l.513-3.714A.183.183,0,0,0,16.716,6.684Z" transform="translate(-3.382 -4.493)" fill="#fff"/>
</svg>
