<svg xmlns="http://www.w3.org/2000/svg" width="28.542" height="22.195" viewBox="0 0 28.542 22.195">
  <path id="Icon_awesome-home" data-name="Icon awesome-home" d="M13.892,8.012,4.756,15.535v8.12a.793.793,0,0,0,.793.793l5.552-.014a.793.793,0,0,0,.789-.793V18.9a.793.793,0,0,1,.793-.793h3.171a.793.793,0,0,1,.793.793v4.739a.793.793,0,0,0,.793.8l5.55.015a.793.793,0,0,0,.793-.793V15.53L14.65,8.012A.6.6,0,0,0,13.892,8.012Zm14.43,5.114L24.179,9.711V2.848a.6.6,0,0,0-.595-.595H20.81a.6.6,0,0,0-.595.595v3.6L15.779,2.8a2.378,2.378,0,0,0-3.022,0L.215,13.125a.6.6,0,0,0-.079.837L1.4,15.5a.595.595,0,0,0,.838.081l11.655-9.6a.6.6,0,0,1,.758,0L26.3,15.58a.6.6,0,0,0,.837-.079l1.263-1.536a.595.595,0,0,0-.084-.839Z" transform="translate(0.001 -2.254)" fill="currentColor"/>
</svg>
