<svg xmlns="http://www.w3.org/2000/svg" width="17.423" height="21.725" viewBox="0 0 17.423 21.725">
  <path id="Path_10" data-name="Path 10" d="M19.245,14.174V10.711A6.534,6.534,0,0,0,13.8,4.276V3.089a1.089,1.089,0,0,0-2.178,0V4.276a6.534,6.534,0,0,0-5.445,6.436v3.463A3.267,3.267,0,0,0,4,17.245v2.178a1.089,1.089,0,0,0,1.089,1.089H8.508a4.356,4.356,0,0,0,8.407,0h3.419a1.089,1.089,0,0,0,1.089-1.089V17.245a3.267,3.267,0,0,0-2.178-3.071ZM8.356,10.711a4.356,4.356,0,1,1,8.711,0v3.267H8.356ZM12.711,21.6a2.178,2.178,0,0,1-1.873-1.089h3.746A2.178,2.178,0,0,1,12.711,21.6Zm6.534-3.267H6.178V17.245a1.089,1.089,0,0,1,1.089-1.089H18.156a1.089,1.089,0,0,1,1.089,1.089Z" transform="translate(-4 -2)" fill="current"/>
</svg>
